<svg xmlns="http://www.w3.org/2000/svg" xmlns:xlink="http://www.w3.org/1999/xlink" viewBox="0,0,256,256" width="60px" height="60px" fill-rule="nonzero"><g fill="#1d6f57" fill-rule="nonzero" stroke="none" stroke-width="1" stroke-linecap="butt" stroke-linejoin="miter" stroke-miterlimit="10" stroke-dasharray="" stroke-dashoffset="0" font-family="none" font-weight="none" font-size="none" text-anchor="none" style="mix-blend-mode: normal"><g transform="scale(0.53333,0.53333)"><path d="M403.26367,7.24414c-13.67972,0.2888 -27.95498,4.69541 -41.35351,19.48047c-6.951,7.671 -11.83766,15.99708 -14.59766,24.45508c-1.625,4.98 4.60631,8.69109 8.32031,4.99609c14.044,-13.976 31.38672,-23.94609 49.63672,-29.87109c4.313,-1.42 9.05617,1.11516 10.20117,5.66016c1.03,4.07 -1.25023,8.25883 -5.24023,9.54883c-34.564,11.21 -58.75467,36.43573 -68.01367,66.55274c-78.448,-57.153 -188.33936,-50.80227 -260.06836,20.92773c-35.844,35.845 -56.59555,82.47647 -59.06055,132.23047l-10.05469,-8.13867c-3.434,-2.78 -8.472,-2.25141 -11.25,1.18359c-2.78,3.434 -2.25041,8.47195 1.18359,11.25195l22.83789,18.48829c2.934,2.376 7.13141,2.377 10.06641,0l22.83984,-18.49024c3.434,-2.78 3.96359,-7.816 1.18359,-11.25c-2.78,-3.434 -7.81795,-3.96455 -11.25195,-1.18555l-9.50195,7.69141c5.458,-97.468 86.4703,-175.0918 185.2793,-175.0918c73.172,0 116.82774,42.17038 118.92774,43.23438c82.506,69.046 91.47782,195.74128 9.79882,274.61328c-34.29,33.112 -80.88765,53.31445 -128.72265,53.31445c-63.057,-0.031 -124.13167,-35.68773 -159.38867,-93.05273c-2.313,-3.764 -7.23991,-4.93995 -11.00391,-2.62695c-3.764,2.313 -4.939,7.2399 -2.625,11.0039c18.702,30.431 44.48645,55.82636 74.56445,73.44336c135.153,79.167 300.0293,-25.58365 300.0293,-174.34766c0,-60.38499 -26.71208,-114.71606 -70.20508,-152.41406c1.285,-5.271 3.01685,-10.34273 5.21485,-15.17773c16.782,14.837 44.53893,19.64451 75.46093,4.22851c24.79,-12.33 41.45024,-40.17945 43.49024,-72.68945c0.857,-13.838 -11.56063,-24.9182 -25.14063,-22.4082c-12.84281,2.38984 -31.5632,-5.98264 -51.55664,-5.56055zM225.21484,126.68359c-47.32683,-0.16367 -93.79612,22.93641 -121.61914,65.42579c-2.03,3.1 -1.72517,7.17762 0.79883,9.89062l20.27539,21.79297c3.827,4.132 10.48263,4.05114 14.14063,-0.38086l20.84961,-25.12891c6.97,-8.4 18.48992,-11.41023 28.66992,-7.49023l3.67969,1.41992c10.56,4.06 17.20992,14.7693 16.16992,26.0293l-2.74024,29.7207c-0.5,5.4 -2.77039,10.60063 -6.40039,14.64063l-20.48828,22.82031c-3.613,4.003 -3.13156,10.24444 1.14844,13.64844l21.25,16.83007c6.72,5.33 10.28125,13.60039 9.53125,22.15039l-5.73242,68.45313c-0.368,4.4 2.89787,8.26948 7.29687,8.64648c22.958,1.968 46.31319,-1.48718 68.11719,-10.61718c5.876,-2.461 6.56995,-10.52521 1.25195,-14.03321l-26.76367,-17.6582c-8.21,-5.5 -12.51953,-15.30148 -11.01953,-25.02148l5.48828,-35.53907c0.67,-4.39 2.50125,-8.54953 5.28125,-12.01953l18.23047,-22.71094c2.23,-2.79 2.69875,-6.53906 1.21875,-9.78906l-18.2793,-40.06055c-4.03,-8.83 -2.73109,-19.01078 3.37891,-26.55078l36.49414,-45.09179c3.132,-3.869 2.02834,-9.66707 -2.34766,-12.03907c-21.45018,-11.62875 -44.76775,-17.25795 -67.88086,-17.33789zM315.58984,161.48633c-2.37363,-0.03636 -4.74778,0.97829 -6.36328,2.97461l-37.8457,46.77344c-2.27,2.78999 -2.75172,6.56007 -1.26172,9.83007l18.28125,40.0586c4.01,8.78 2.73898,18.9114 -3.29101,26.4414l-18.22852,22.71875c-1.02,1.28 -1.70117,2.82141 -1.95117,4.44141l-5.49024,35.53906c-0.56,3.6 1.04055,7.23 4.06055,9.25l39.96484,26.35547c2.878,1.898 6.62947,1.71842 9.35547,-0.39258c71.726,-55.558 75.19917,-161.77179 7.95117,-221.96679c-1.48881,-1.33219 -3.33548,-1.99516 -5.18164,-2.02344zM178.97656,205.10156c-2.65968,0.06848 -5.23211,1.26617 -7.00586,3.4043l-20.83984,25.12891c-9.885,11.917 -27.87464,12.16578 -38.18164,1.05078l-11.88867,-12.78321c-4.093,-4.4 -11.45435,-2.90375 -13.40235,2.78125c-25.781,75.221 15.13368,158.19454 90.88868,183.51953c4.94799,1.654 10.14703,-1.69943 10.58203,-6.89843l5.40039,-64.6211c0.29,-3.201 -1.02953,-6.26928 -3.51953,-8.23828l-21.24024,-16.83008c-11.524,-9.122 -12.8599,-26.04186 -3.12891,-36.88085l20.5,-22.82032c1.34001,-1.49 2.17938,-3.41992 2.35938,-5.41992l2.74023,-29.71875c0.39,-4.17 -2.07046,-8.13086 -5.98046,-9.63086l-3.66993,-1.41992c-1.17812,-0.45313 -2.40433,-0.65418 -3.61328,-0.62305zM41.30664,325.61133c-1.03883,-0.02756 -2.10041,0.14753 -3.12891,0.55078c-4.113,1.612 -6.14034,6.25614 -4.52734,10.36914c0.449,1.146 0.90705,2.28302 1.37305,3.41602c1.674,4.068 6.33741,6.04346 10.44141,4.35546c4.086,-1.681 6.03451,-6.35735 4.35352,-10.44335c-0.433,-1.051 -0.85548,-2.10597 -1.27148,-3.16797c-1.20975,-3.08475 -4.12375,-4.99739 -7.24023,-5.08008z"></path></g></g></svg>